<svg width="109" height="24" viewBox="0 0 109 24" fill="none" xmlns="http://www.w3.org/2000/svg">
<g clip-path="url(#clip0)">
<path d="M87.5 24C87.224 24 87 23.776 87 23.5V0.5C87 0.224 87.224 0 87.5 0H103.552L103.5 5H93V18.928H103.052C103.328 18.928 103.552 19.152 103.552 19.428V23.5C103.552 23.776 103.328 24 103.052 24H87.5Z" fill="black"/>
<path d="M108.052 4.29153e-06C108.328 4.29153e-06 108.552 0.224004 108.552 0.500004V23.5C108.552 23.776 108.328 24 108.052 24L92 24L92.052 19L102.552 19V5.072L92.5 5.072C92.224 5.072 92 4.848 92 4.572V0.500004C92 0.224004 92.224 4.29153e-06 92.5 4.29153e-06L108.052 4.29153e-06Z" fill="black"/>
<path d="M71.5 24C71.224 24 71 23.776 71 23.5V0.5C71 0.224 71.224 0 71.5 0H76.793C77.069 0 77.293 0.224 77.293 0.5V23.5C77.293 23.776 77.069 24 76.793 24H71.5Z" fill="#FF4400"/>
<path d="M63 0.397267C63 0.177976 63.2147 -9.64881e-10 63.4792 -9.5368e-10L85.5208 0C85.7853 0 86 0.177976 86 0.397267L86 4.60273C86 4.82202 85.7853 5 85.5208 5L63.4792 5C63.2147 5 63 4.82202 63 4.60273L63 0.397267Z" fill="#FF4400"/>
<path d="M45.5 24C45.224 24 45 23.776 45 23.5V0.5C45 0.224 45.224 0 45.5 0H61.552C61.552 0 61.577 5.5 61.5 5H51.5L51.293 18.928H61.052C61.328 18.928 61.552 19.152 61.552 19.428V23.5C61.552 23.776 61.328 24 61.052 24H45.5Z" fill="black"/>
<path d="M22.6102 -0.813315C22.8096 -0.815055 22.992 -0.693727 23.0729 -0.503803L25.1432 4.34177L35.8337 4.24848L37.8192 -0.632492C37.8967 -0.823798 38.076 -0.948283 38.2764 -0.950031L43.4984 -0.995603C43.8651 -0.998804 44.111 -0.604065 43.9587 -0.257937L33.365 23.7933C33.2845 23.9774 33.1082 24.0956 32.9138 24.0973L28.5474 24.1354C28.353 24.1371 28.1757 24.022 28.0909 23.8404L17.046 -0.0220318C16.8867 -0.366482 17.1257 -0.765452 17.4924 -0.768652L22.6102 -0.813315ZM35.8337 4.24848L25.1432 4.34177L30.6001 17.2028L35.8337 4.24848Z" fill="#FF4400"/>
<path d="M21.3487 24C21.1497 24 20.9687 23.882 20.8897 23.699L18.8657 19.03H8.19566L6.17165 23.699C6.09265 23.882 5.91265 24 5.71265 24H0.500655C0.134655 24 -0.107345 23.619 0.0476555 23.288L10.8297 0.288C10.9117 0.112 11.0887 0 11.2827 0H15.6407C15.8347 0 16.0107 0.112 16.0937 0.287L26.9087 23.287C27.0647 23.619 26.8227 24 26.4567 24H21.3487ZM10.2137 14.332H16.8487L13.5317 6.638L10.2147 14.332H10.2137Z" fill="#FF4400"/>
</g>
<defs>
<clipPath id="clip0">
<rect width="109" height="24" fill="white"/>
</clipPath>
</defs>
</svg>
